<?xml-stylesheet type="text/css" href="logo.css" ?>
<svg version="1.1" id="Layer_1" xmlns="http://www.w3.org/2000/svg" xmlns:xlink="http://www.w3.org/1999/xlink" x="0px" y="0px"
	 viewBox="0 0 794.45 1100" style="enable-background:new 0 0 794.45 1100;" xml:space="preserve">
<style type="text/css">
	.st0{fill:#ED1588;}
</style>
<g>
	<path class="st0" d="M227.79,951.43c-62.99,0-125.98,0.04-188.98-0.04c-8.24-0.01-16.75,0.56-24.67-1.23
		c-14.09-3.18-18.02-13.18-10.13-25.48c4.4-6.85,10.54-12.67,16.36-18.5C79.47,847,139.02,788.27,197.58,728.57
		c15.7-16,32.51-22.17,54.9-21.87c81.56,1.12,163.15,0.58,244.73,0.37c35.42-0.09,35.42-0.42,35.55-36.85
		c0.01-3.1,0.06-6.2-0.02-9.29c-0.65-27.51-1.94-29.42-30.54-29.95c-37.16-0.69-74.35-0.16-111.52-0.32
		c-9.28-0.04-18.75,0.37-27.79-1.3c-16.06-2.97-19.87-13.12-10.21-26.76c4.72-6.67,11.05-12.23,16.87-18.08
		c57.5-57.84,115.39-115.29,172.33-173.67c14.75-15.12,30.35-22.63,51.69-22.2c48.51,0.98,97.06-0.04,145.59,0.4
		c36.22,0.33,37.6,2.07,37.7,39.52c0.14,53.69-0.59,107.39,0.24,161.07c0.65,41.59-13.18,77.42-41.8,106.52
		c-70.22,71.4-141.22,142.04-212.41,212.48c-30,29.68-66.61,43.48-109.23,42.94c-61.95-0.78-123.92-0.2-185.88-0.2
		C227.79,951.38,227.79,951.41,227.79,951.43z M322.99,845.77c0-0.02,0-0.04,0-0.06c-56.79,0-113.59-0.17-170.38,0.18
		c-9.07,0.06-20.82-0.71-26.7,4.31c-20.3,17.37-38.9,36.8-57.38,56.18c-6.73,7.06-1.09,10.76,6.33,11.62
		c4.09,0.48,8.25,0.42,12.38,0.42c112.55-0.02,225.1,0.07,337.65-0.16c35.66-0.07,63.26-16.87,84.63-44.24
		c0.41-0.52,0.79-1.06,1.15-1.62c7.04-10.83,0.29-25.24-12.58-26.29c-0.55-0.04-1.1-0.07-1.64-0.08
		C438.64,845.54,380.82,845.77,322.99,845.77z M347.69,812.71c6.2,0,12.4,0,18.59,0c47.52-0.02,95.04-0.38,142.56,0.12
		c16.88,0.18,25.24-6.14,23.86-23.56c-0.33-4.1,0.05-8.26,0.06-12.39c0.11-36.5,0.11-36.67-35.28-36.75
		c-67.15-0.15-134.3-0.09-201.44-0.1c-66.14-0.01-66.08,0-111.63,48.87c-2.2,2.36-5.34,6.6-6.87,9.45c-0.03,0.05-0.06,0.1-0.08,0.16
		c-2.83,5.3,0.14,11.98,6.01,13.26c2.06,0.45,4.11,0.76,6.17,0.77C242.32,812.84,295.01,812.71,347.69,812.71z M671.17,608.13
		c0.11,0,0.21,0,0.32,0c0,26.8-0.22,53.61,0.12,80.41c0.11,9.08,3.33,19.18,14.17,9.89c25.1-21.53,52.79-44.17,55.84-78.93
		c4.4-50.15,2.94-100.83,3.44-151.29c0.01-0.69-0.09-1.39-0.25-2.09c-1.6-6.58-9.66-9.38-15.41-5.8c-1.13,0.71-2.22,1.47-3.24,2.31
		c-53.28,44.22-54.97,47.94-54.99,117.65C671.16,589.57,671.17,598.85,671.17,608.13z M566.09,715.22
		C566.22,715.22,565.97,715.22,566.09,715.22c0,26.82-0.24,53.64,0.11,80.45c0.15,11.38,6.14,16.01,15.35,7.63
		c26.09-23.71,53.63-48.15,55.67-86.02c2.55-47.31,1.04-94.86,0.81-142.3c-0.01-1.38-0.36-2.76-0.91-4.13
		c-2.35-5.95-10.22-8.28-15-4.03c-0.03,0.02-0.06,0.05-0.08,0.07c-33.71,30.68-59.26,69.47-56.68,114.37
		C566.01,692.3,566.09,703.88,566.09,715.22z M648.09,418.7c-16.54,0-33.21-1.25-49.56,0.48c-9.56,1.01-20.35,4.74-27.56,10.84
		c-15.72,13.3-29.82,28.59-43.85,43.75c-0.04,0.04-0.07,0.08-0.11,0.12c-6.31,7.01-1.81,18.79,7.47,20.45
		c0.92,0.16,1.83,0.26,2.75,0.28c31,0.53,62.06,1.36,92.98-0.28c10.29-0.55,21.8-6.17,29.95-12.87
		c15.09-12.42,28.37-27.11,41.83-41.39c0.26-0.28,0.52-0.56,0.76-0.86c6.23-7.45,1.67-19.56-8.02-20.18c-0.05,0-0.11-0.01-0.16-0.01
		C679.13,418.2,663.6,418.72,648.09,418.7z M477.48,600.32C477.48,600.5,477.48,600.14,477.48,600.32c15.48,0,31.03,0.9,46.4-0.35
		c8.8-0.72,19.32-2.63,25.58-8.04c17.13-14.79,32.6-31.52,48.35-47.86c10.13-10.5,5.45-17.42-7.14-17.67
		c-36.07-0.71-72.17-0.28-108.25,0.1c-3.82,0.04-8.54,1.78-11.28,4.38c-18.66,17.75-37.22,35.64-55.13,54.15
		c-6.99,7.22-4.35,14.07,5.8,14.51C440.34,600.36,458.92,600.32,477.48,600.32z"/>
	<path class="st0" d="M326.52,964.94l-53.95,99.3c-2.51,4.6-7.32,7.47-12.56,7.49l-87.45,0.4c-11.28,0.05-18.23-12.3-12.34-21.91
		l52.38-85.29h-29.62l-64.74,105.65c-7.91,12.91,1.42,29.49,16.56,29.42l129.97-0.6c7.03-0.03,13.5-3.89,16.87-10.06l67.94-124.4
		H326.52z"/>
	<g>
		<path class="st0" d="M404.72,187.83l67.63-146.96c2.34-4.69,7.04-7.74,12.28-7.95c0,0,86.93-0.28,105.36,1.85
			c19.43,2.24-33.16,90.3-38.69,100.13l-34.09,56.96l29.6-1.1L626.33,28.8c7.43-13.19-2.52-29.41-17.64-28.78L478.83,5.45
			c-7.03,0.29-13.34,4.38-16.48,10.68l-80.68,172.56L404.72,187.83z"/>
		<path class="st0" d="M780.48,95.04c-7.92-1.76-16.44-1.13-24.68-1.14c-50.39-0.06-97.98-0.11-148.37-0.11l-16.79,33.35
			c37.31-0.14,71.43-0.3,108.73-0.29c6.18,0,12.38-0.18,18.54,0.24c12.96,0.87,14.05,7.05,5.8,15.47
			c-15.85,16.2-31.03,33.41-48.82,47.21c-8.67,6.73-22.54,9.17-34.12,9.35c-57.72,0.9-115.45,0.41-173.18,0.41
			c-59.79-0.02-119.58,0.12-179.37-0.2c-6.83-0.04-13.64-2.59-20.47-3.98c3.72-6.75,6.48-14.3,11.32-20.12
			c28.78-34.69,64.75-50.07,111.04-49.1c4.8,0.1,4.41,0.11,9.21,0.19l16.98-32.53c-15.15-0.01-26.49,0.13-41.64,0.1
			c-39.07-0.07-73.1,13.07-100.76,40.38C202.65,204.66,131.67,275.35,61.16,346.5c-26.2,26.44-43.06,58.25-43.41,96.44
			c-0.57,60.92-0.49,121.86-0.06,182.79c0.19,26.37,3.81,30.09,31.11,30.41c52.67,0.61,105.35-0.27,158.02,0.33
			c17.02,0.19,29.19-6.8,40.64-18.4c61.66-62.47,123.88-124.39,185.28-187.12c2.97-3.04,5.09-6.91,6.92-11.06
			c3.63-8.22-0.22-17.95-8.5-21.44c-4.16-1.75-8.33-3.1-12.53-3.23c-40.25-1.16-80.55-0.49-120.83-0.76
			c-35.57-0.24-36.04-0.89-36.17-36.74c0-1.03,0-2.07,0-3.1c0.14-36.31,0.14-36.53,35.48-36.6c82.63-0.15,165.26-0.62,247.88,0.31
			c21.36,0.24,37-6.47,51.85-21.6c59.33-60.42,119.61-119.9,179.48-179.8c5.1-5.1,10.6-10.11,14.38-16.12
			C798.27,108.76,794.14,98.07,780.48,95.04z M156.02,412.86c0.05,0,0.11,0,0.16,0c0-18.54,0.12-37.09-0.04-55.63
			c-0.11-12.55,5.44-17.87,18.33-19.3c50.13-5.57,53.25-2.16,54.61,49.01c0.65,24.56-5.66,43.46-24.79,59.55
			c-4.12,3.47-20.42,20.36-31.09,30.04c-1.41,1.28-3.15,2.21-5,3.01c-4.35,1.86-9.36-0.45-10.8-4.96c-0.65-2.03-1.14-4.06-1.19-6.1
			C155.74,449.95,156.02,431.4,156.02,412.86z M66.49,584.21c-6.77,5.2-17.38,0.35-17.45-8.19c0-0.05,0-0.09,0-0.14
			c0.25-46.43-0.41-92.93,2.12-139.25c1.92-35.2,21.35-61.94,51.05-80.48c15-9.37,20.04-6.62,20.66,11.34
			c0.85,24.75,0.21,49.55,0.21,74.33c0.05,0,0.1,0,0.16,0c0,7.23,0,14.45,0,21.68c0.01,71.88-1.28,74.81-56.38,120.42
			C66.74,584.02,66.62,584.11,66.49,584.21z M265.36,573.5c-8.65,10.16-19.49,18.5-27.88,28.85
			c-15.73,19.39-35.42,26.69-59.84,24.01c-9.16-1.01-18.52-0.16-27.79-0.16c0-0.08,0-0.16,0-0.23c-17.5,0-35.02,0.34-52.51-0.12
			c-11.68-0.31-19.63-4.98-8.88-16.49c16.85-18.03,34.54-35.35,52.84-51.91c4.78-4.32,13.08-6.44,19.84-6.58
			c31.91-0.7,63.84-0.62,95.76-0.16c0.06,0,0.11,0,0.17,0c9.69,0.24,15.35,11.52,10.38,19.85
			C266.83,571.59,266.14,572.58,265.36,573.5z M267.62,444.83c32.91-0.82,65.86-0.63,98.78-0.03c0.98,0.02,1.95,0.18,2.92,0.44
			c8.12,2.17,11.57,12.64,5.81,18.76c-0.03,0.03-0.06,0.07-0.1,0.1c-14.26,14.83-28.15,30.25-44.01,43.21
			c-8.07,6.6-19.75,10.57-30.29,11.94c-15.18,1.98-30.81,0.5-46.24,0.5c0-0.1,0-0.2,0-0.3c-16.46,0-33,0.96-49.37-0.27
			c-16.28-1.23-18.88-7.21-8.23-18.83c15.28-16.66,31.34-32.74,48.27-47.71C250.72,447.73,259.97,445.02,267.62,444.83z
			 M620.47,244.5c-25.02,31.86-66.33,62.4-102.54,61.87c-52.28-0.77-105.02-1.19-157.59-1.19c-59.79-0.03-119.58,0.13-179.36-0.27
			c-4.11-0.03-8.21-1.36-12.3-2.78c-3.68-1.28-5.33-5.54-3.51-8.98c2.06-3.88,4.16-7.72,6.94-10.98
			c28.97-34.03,64.19-51.22,110.74-50.27c103.04,2.1,206.17,2.31,309.24,0.66c6.86-0.11,16.7-0.7,21.49,0.74
			C616.82,234.25,622.34,242.11,620.47,244.5z"/>
	</g>
</g>
</svg>
